<svg xmlns="http://www.w3.org/2000/svg" width="800" height="800" style="width:100%;height:100%;transform:translate3d(0,0,0)" viewBox="0 0 800 800"><defs><clipPath id="a"><path d="M0 0h800v800H0z"/></clipPath><clipPath id="b"><path d="M0 0h1728v1728H0z"/></clipPath></defs><g clip-path="url(#a)"><g clip-path="url(#b)" style="display:block" transform="translate(-668.3 -668.509)scale(1.2367)"><path fill="none" stroke="#000" stroke-linecap="round" stroke-miterlimit="10" stroke-width="35" d="m119.067-87.47-145.507.23c-48.18 0-87.24 39.06-87.24 87.24s39.06 87.24 87.24 87.24h140.12" style="display:block" transform="matrix(1.29947 0 0 1.29947 895.78 864)"/><path fill="none" stroke="#000" stroke-linecap="round" stroke-miterlimit="10" stroke-width="35" d="M2.309 17.5H338.42" style="display:block" transform="matrix(1.29947 0 0 1.29947 643.74 841.26)"/><path fill="none" stroke="#000" stroke-linecap="round" stroke-miterlimit="10" stroke-width="35" d="M0-169.21c93.452 0 169.21 75.758 169.21 169.21S93.452 169.21 0 169.21-169.21 93.452-169.21 0-93.452-169.21 0-169.21z" style="display:block" transform="matrix(1.29947 0 0 1.29947 863.623 864)"/></g></g></svg>